<svg xmlns="http://www.w3.org/2000/svg" viewBox="0 0 820 680" role="img" aria-labelledby="aboutTitle aboutDesc">
  <title id="aboutTitle">Axenovo Infotech team and strategy illustration</title>
  <desc id="aboutDesc">A modern studio illustration with dashboards, profile cards, and connected delivery blocks.</desc>
  <defs>
    <linearGradient id="stage" x1="0%" y1="0%" x2="100%" y2="100%">
      <stop offset="0%" stop-color="#f9fcff" />
      <stop offset="100%" stop-color="#e7f4ff" />
    </linearGradient>
    <linearGradient id="darkCard" x1="0%" y1="0%" x2="100%" y2="100%">
      <stop offset="0%" stop-color="#113082" />
      <stop offset="100%" stop-color="#0a67d8" />
    </linearGradient>
    <filter id="softShadow" x="-20%" y="-20%" width="160%" height="160%">
      <feDropShadow dx="0" dy="18" stdDeviation="16" flood-color="#173570" flood-opacity="0.16" />
    </filter>
  </defs>

  <rect width="820" height="680" rx="34" fill="url(#stage)" />
  <circle cx="132" cy="146" r="74" fill="#39bcc6" opacity="0.16" />
  <circle cx="698" cy="116" r="86" fill="#113082" opacity="0.08" />
  <circle cx="670" cy="572" r="92" fill="#0a67d8" opacity="0.08" />

  <g filter="url(#softShadow)">
    <rect x="58" y="90" width="318" height="208" rx="28" fill="#ffffff" />
    <rect x="86" y="124" width="154" height="108" rx="22" fill="url(#darkCard)" />
    <circle cx="164" cy="171" r="28" fill="#e8f9ff" opacity="0.18" />
    <path d="M164 176c15 0 27 12 27 27v6h-54v-6c0-15 12-27 27-27z" fill="#d9f6ff" opacity="0.85" />
    <circle cx="164" cy="158" r="14" fill="#ffffff" opacity="0.92" />
    <rect x="264" y="132" width="82" height="14" rx="7" fill="#173570" />
    <rect x="264" y="160" width="60" height="10" rx="5" fill="#7b90b1" />
    <rect x="264" y="192" width="84" height="10" rx="5" fill="#d7ecff" />
    <rect x="264" y="216" width="68" height="10" rx="5" fill="#d7ecff" />
    <rect x="86" y="252" width="262" height="14" rx="7" fill="#d7ecff" />
  </g>

  <g filter="url(#softShadow)">
    <rect x="420" y="86" width="336" height="250" rx="30" fill="#ffffff" />
    <rect x="450" y="118" width="276" height="44" rx="18" fill="#edf6ff" />
    <rect x="476" y="134" width="92" height="12" rx="6" fill="#173570" />
    <rect x="582" y="134" width="74" height="12" rx="6" fill="#8da3c4" />
    <rect x="450" y="184" width="122" height="122" rx="26" fill="url(#darkCard)" />
    <path d="M486 260c0-29 23-52 52-52s52 23 52 52" fill="none" stroke="#d9f6ff" stroke-linecap="round" stroke-width="12" />
    <circle cx="537" cy="226" r="22" fill="#ffffff" opacity="0.94" />
    <rect x="598" y="194" width="98" height="14" rx="7" fill="#173570" />
    <rect x="598" y="222" width="72" height="10" rx="5" fill="#8aa0c2" />
    <rect x="598" y="252" width="74" height="10" rx="5" fill="#0a67d8" opacity="0.58" />
    <rect x="598" y="276" width="50" height="10" rx="5" fill="#39bcc6" opacity="0.65" />
  </g>

  <g filter="url(#softShadow)">
    <rect x="116" y="370" width="248" height="198" rx="28" fill="#ffffff" />
    <rect x="144" y="404" width="90" height="90" rx="22" fill="#eef7ff" />
    <path d="M171 471h36" fill="none" stroke="#0a67d8" stroke-linecap="round" stroke-width="8" />
    <path d="M171 447h36" fill="none" stroke="#39bcc6" stroke-linecap="round" stroke-width="8" />
    <rect x="256" y="414" width="74" height="12" rx="6" fill="#173570" />
    <rect x="256" y="440" width="58" height="10" rx="5" fill="#8aa0c2" />
    <rect x="144" y="524" width="188" height="12" rx="6" fill="#d7ecff" />
  </g>

  <g filter="url(#softShadow)">
    <rect x="410" y="384" width="304" height="176" rx="28" fill="#173570" />
    <rect x="438" y="418" width="104" height="18" rx="9" fill="#d9f6ff" />
    <rect x="438" y="454" width="236" height="12" rx="6" fill="#9edfff" opacity="0.74" />
    <rect x="438" y="482" width="202" height="12" rx="6" fill="#ffffff" opacity="0.52" />
    <rect x="438" y="510" width="162" height="12" rx="6" fill="#39bcc6" opacity="0.78" />
    <path d="M648 446l24 18-24 18-24-18z" fill="#39bcc6" opacity="0.9" />
    <path d="M648 482v34l-24-18v-34z" fill="#0a67d8" />
    <path d="M648 482l24-18v34l-24 18z" fill="#113082" />
  </g>

  <path
    d="M274 304c69 55 151 83 246 83 71 0 138-18 201-53"
    fill="none"
    stroke="#90d8ff"
    stroke-dasharray="10 14"
    stroke-linecap="round"
    stroke-width="5"
    opacity="0.7"
  />
  <path
    d="M365 470c35-18 71-27 112-27 42 0 82 9 121 27"
    fill="none"
    stroke="#39bcc6"
    stroke-dasharray="8 12"
    stroke-linecap="round"
    stroke-width="4"
    opacity="0.56"
  />
</svg>
