<svg width="960" height="720" viewBox="0 0 960 720" fill="none" xmlns="http://www.w3.org/2000/svg">
  <defs>
    <linearGradient id="bg3" x1="122" y1="78" x2="820" y2="654" gradientUnits="userSpaceOnUse">
      <stop stop-color="#FAFDFF"/>
      <stop offset="1" stop-color="#E8F3FF"/>
    </linearGradient>
    <linearGradient id="surface3" x1="250" y1="130" x2="710" y2="522" gradientUnits="userSpaceOnUse">
      <stop stop-color="#FFFFFF"/>
      <stop offset="1" stop-color="#EAF4FF"/>
    </linearGradient>
    <filter id="shadow3" x="154" y="96" width="652" height="486" filterUnits="userSpaceOnUse" color-interpolation-filters="sRGB">
      <feDropShadow dx="0" dy="24" stdDeviation="26" flood-color="#153A76" flood-opacity="0.12"/>
    </filter>
  </defs>

  <rect width="960" height="720" rx="42" fill="url(#bg3)"/>
  <circle cx="162" cy="132" r="116" fill="#DDFBFF"/>
  <circle cx="804" cy="122" r="122" fill="#E4EEFF"/>
  <ellipse cx="486" cy="610" rx="272" ry="44" fill="#D8E6F6"/>

  <g filter="url(#shadow3)">
    <rect x="184" y="132" width="592" height="398" rx="34" fill="url(#surface3)"/>
    <rect x="220" y="172" width="520" height="220" rx="28" fill="#F7FBFF" stroke="#DAE6F4"/>
    <rect x="252" y="206" width="242" height="154" rx="24" fill="#11285F"/>
    <rect x="280" y="234" width="82" height="18" rx="9" fill="#39BCC6"/>
    <rect x="280" y="268" width="172" height="14" rx="7" fill="#7FA7E7"/>
    <rect x="280" y="298" width="146" height="14" rx="7" fill="#6A92D5"/>
    <rect x="280" y="328" width="182" height="16" rx="8" fill="#1D458E"/>

    <rect x="526" y="208" width="182" height="66" rx="20" fill="#F1F8FF"/>
    <rect x="548" y="230" width="78" height="12" rx="6" fill="#8EC7EF"/>
    <rect x="548" y="252" width="122" height="10" rx="5" fill="#CCDDF2"/>

    <rect x="526" y="292" width="182" height="74" rx="20" fill="#FFFFFF"/>
    <rect x="548" y="314" width="64" height="12" rx="6" fill="#39BCC6"/>
    <rect x="548" y="338" width="132" height="10" rx="5" fill="#D7E6F8"/>
  </g>

  <g>
    <rect x="318" y="474" width="324" height="18" rx="9" fill="#A8BED7"/>
    <rect x="360" y="492" width="22" height="68" rx="11" fill="#8EA9C6"/>
    <rect x="578" y="492" width="22" height="68" rx="11" fill="#8EA9C6"/>
  </g>

  <g>
    <ellipse cx="316" cy="560" rx="84" ry="18" fill="#D4E2F0"/>
    <circle cx="316" cy="346" r="42" fill="#F6C7A6"/>
    <path d="M282 336C286 298 316 282 348 292C360 304 364 326 358 352H294C285 348 281 342 282 336Z" fill="#1A376E"/>
    <rect x="272" y="390" width="92" height="114" rx="34" fill="#39BCC6"/>
    <rect x="288" y="410" width="60" height="74" rx="22" fill="#FFFFFF" fill-opacity="0.18"/>
    <rect x="250" y="406" width="34" height="92" rx="17" fill="#39BCC6"/>
    <rect x="356" y="406" width="34" height="92" rx="17" fill="#39BCC6"/>
    <rect x="290" y="500" width="28" height="86" rx="14" fill="#17356F"/>
    <rect x="330" y="500" width="28" height="86" rx="14" fill="#17356F"/>
    <rect x="278" y="578" width="40" height="12" rx="6" fill="#101E39"/>
    <rect x="326" y="578" width="40" height="12" rx="6" fill="#101E39"/>
    <rect x="350" y="404" width="90" height="14" rx="7" transform="rotate(-20 350 404)" fill="#F6C7A6"/>
  </g>

  <g>
    <ellipse cx="648" cy="560" rx="86" ry="18" fill="#D4E2F0"/>
    <circle cx="652" cy="340" r="40" fill="#F2BE98"/>
    <path d="M618 330C621 296 646 282 680 292C692 306 696 330 690 356H628C621 351 617 342 618 330Z" fill="#203E7E"/>
    <rect x="608" y="384" width="86" height="116" rx="34" fill="#0A67D8"/>
    <rect x="622" y="404" width="58" height="74" rx="22" fill="#FFFFFF" fill-opacity="0.18"/>
    <rect x="688" y="400" width="32" height="88" rx="16" fill="#0A67D8"/>
    <rect x="630" y="496" width="26" height="86" rx="13" fill="#17356F"/>
    <rect x="666" y="496" width="26" height="86" rx="13" fill="#17356F"/>
    <rect x="618" y="574" width="40" height="12" rx="6" fill="#101E39"/>
    <rect x="662" y="574" width="40" height="12" rx="6" fill="#101E39"/>
    <rect x="556" y="404" width="88" height="14" rx="7" transform="rotate(16 556 404)" fill="#F2BE98"/>
  </g>

  <g>
    <path d="M740 168C740 152 754 140 770 140H820C836 140 850 152 850 168V208C850 224 836 236 820 236H792L772 256V236H770C754 236 740 224 740 208V168Z" fill="#FFFFFF" opacity="0.96"/>
    <rect x="762" y="166" width="58" height="12" rx="6" fill="#39BCC6"/>
    <rect x="762" y="188" width="66" height="10" rx="5" fill="#C8DCF2"/>
    <rect x="762" y="206" width="46" height="10" rx="5" fill="#D8E7F8"/>
  </g>
</svg>
