<svg width="960" height="720" viewBox="0 0 960 720" fill="none" xmlns="http://www.w3.org/2000/svg">
  <defs>
    <linearGradient id="bg" x1="102" y1="64" x2="848" y2="656" gradientUnits="userSpaceOnUse">
      <stop stop-color="#F8FCFF"/>
      <stop offset="1" stop-color="#DCEEFF"/>
    </linearGradient>
    <linearGradient id="panel" x1="248" y1="148" x2="708" y2="516" gradientUnits="userSpaceOnUse">
      <stop stop-color="#FFFFFF"/>
      <stop offset="1" stop-color="#EAF5FF"/>
    </linearGradient>
    <linearGradient id="accent" x1="0" y1="0" x2="1" y2="1">
      <stop stop-color="#39BCC6"/>
      <stop offset="1" stop-color="#0A67D8"/>
    </linearGradient>
    <filter id="shadow" x="138" y="96" width="684" height="520" filterUnits="userSpaceOnUse" color-interpolation-filters="sRGB">
      <feDropShadow dx="0" dy="24" stdDeviation="28" flood-color="#153B78" flood-opacity="0.12"/>
    </filter>
  </defs>

  <rect width="960" height="720" rx="42" fill="url(#bg)"/>
  <circle cx="158" cy="118" r="110" fill="#DDFBFF"/>
  <circle cx="808" cy="114" r="126" fill="#E4EFFF"/>
  <ellipse cx="478" cy="612" rx="268" ry="48" fill="#D8E7F8"/>

  <g filter="url(#shadow)">
    <rect x="176" y="132" width="608" height="420" rx="34" fill="url(#panel)"/>
    <rect x="208" y="164" width="544" height="34" rx="17" fill="#F2F8FF"/>
    <circle cx="236" cy="181" r="6" fill="#39BCC6"/>
    <circle cx="258" cy="181" r="6" fill="#8CC8FF"/>
    <circle cx="280" cy="181" r="6" fill="#D4E4F8"/>

    <rect x="228" y="226" width="232" height="178" rx="24" fill="#F8FBFF" stroke="#D7E6F4"/>
    <rect x="252" y="252" width="84" height="84" rx="20" fill="#E4F6FB"/>
    <rect x="354" y="252" width="78" height="16" rx="8" fill="#BFD7F7"/>
    <rect x="354" y="280" width="58" height="12" rx="6" fill="#D5E5F7"/>
    <rect x="252" y="358" width="180" height="18" rx="9" fill="#D7E8F8"/>

    <rect x="486" y="226" width="238" height="212" rx="24" fill="#11285F"/>
    <rect x="512" y="256" width="86" height="18" rx="9" fill="#39BCC6"/>
    <rect x="512" y="294" width="140" height="14" rx="7" fill="#7FA6E7"/>
    <rect x="512" y="324" width="118" height="14" rx="7" fill="#6D95D8"/>
    <rect x="512" y="354" width="164" height="14" rx="7" fill="#527CC3"/>
    <rect x="512" y="392" width="182" height="18" rx="9" fill="#1D458E"/>
  </g>

  <g>
    <rect x="278" y="498" width="272" height="20" rx="10" fill="#A9BFD9"/>
    <rect x="312" y="518" width="20" height="54" rx="10" fill="#8DA8C7"/>
    <rect x="490" y="518" width="20" height="54" rx="10" fill="#8DA8C7"/>
    <rect x="328" y="470" width="166" height="48" rx="20" fill="#203E7E"/>
    <rect x="346" y="446" width="132" height="78" rx="16" fill="#132D65"/>
    <rect x="356" y="456" width="112" height="54" rx="12" fill="#DCEEFF"/>
    <rect x="388" y="512" width="48" height="8" rx="4" fill="#6E88AD"/>
  </g>

  <g>
    <ellipse cx="638" cy="548" rx="78" ry="18" fill="#D3E1F1"/>
    <circle cx="654" cy="326" r="42" fill="#F7C6A5"/>
    <path d="M615 316C621 280 648 264 680 276C692 294 695 315 687 340H628C618 333 614 326 615 316Z" fill="#17356F"/>
    <rect x="620" y="366" width="78" height="118" rx="32" fill="#0A67D8"/>
    <rect x="634" y="388" width="50" height="72" rx="20" fill="#39BCC6" fill-opacity="0.28"/>
    <rect x="602" y="396" width="34" height="88" rx="17" fill="#0A67D8"/>
    <rect x="682" y="396" width="34" height="88" rx="17" fill="#0A67D8"/>
    <rect x="628" y="480" width="26" height="88" rx="13" fill="#17356F"/>
    <rect x="668" y="480" width="26" height="88" rx="13" fill="#17356F"/>
    <rect x="620" y="560" width="44" height="12" rx="6" fill="#13203C"/>
    <rect x="662" y="560" width="44" height="12" rx="6" fill="#13203C"/>
    <rect x="588" y="410" width="82" height="14" rx="7" transform="rotate(-24 588 410)" fill="#F7C6A5"/>
    <rect x="686" y="408" width="86" height="14" rx="7" transform="rotate(18 686 408)" fill="#F7C6A5"/>
  </g>

  <g>
    <ellipse cx="246" cy="566" rx="72" ry="16" fill="#D3E1F1"/>
    <circle cx="238" cy="386" r="38" fill="#F6C8AB"/>
    <path d="M202 378C207 338 237 326 270 338C282 354 286 378 278 404H214C206 399 201 390 202 378Z" fill="#17356F"/>
    <rect x="196" y="426" width="92" height="98" rx="34" fill="#39BCC6"/>
    <rect x="212" y="446" width="60" height="56" rx="22" fill="#FFFFFF" fill-opacity="0.2"/>
    <rect x="178" y="438" width="34" height="78" rx="17" fill="#39BCC6"/>
    <rect x="272" y="438" width="34" height="78" rx="17" fill="#39BCC6"/>
    <rect x="208" y="514" width="28" height="70" rx="14" fill="#203E7E"/>
    <rect x="248" y="514" width="28" height="70" rx="14" fill="#203E7E"/>
    <rect x="194" y="578" width="42" height="12" rx="6" fill="#13203C"/>
    <rect x="244" y="578" width="42" height="12" rx="6" fill="#13203C"/>
    <rect x="260" y="432" width="88" height="12" rx="6" transform="rotate(18 260 432)" fill="#F6C8AB"/>
  </g>

  <g>
    <rect x="704" y="168" width="120" height="88" rx="22" fill="#FFFFFF" opacity="0.96"/>
    <rect x="726" y="192" width="42" height="12" rx="6" fill="#39BCC6"/>
    <rect x="726" y="214" width="76" height="10" rx="5" fill="#C9DBF1"/>
    <rect x="726" y="232" width="58" height="10" rx="5" fill="#D8E7F8"/>
  </g>
</svg>
