<svg xmlns="http://www.w3.org/2000/svg" viewBox="0 0 860 760" role="img" aria-labelledby="heroTitle heroDesc">
  <title id="heroTitle">Axenovo Infotech technology illustration</title>
  <desc id="heroDesc">A glowing laptop with floating interface cards and connected digital panels.</desc>
  <defs>
    <linearGradient id="bg" x1="0%" y1="0%" x2="100%" y2="100%">
      <stop offset="0%" stop-color="#eff9ff" />
      <stop offset="50%" stop-color="#d9efff" />
      <stop offset="100%" stop-color="#bddfff" />
    </linearGradient>
    <linearGradient id="screen" x1="20%" y1="0%" x2="100%" y2="100%">
      <stop offset="0%" stop-color="#113082" />
      <stop offset="50%" stop-color="#0a67d8" />
      <stop offset="100%" stop-color="#39bcc6" />
    </linearGradient>
    <linearGradient id="panel" x1="0%" y1="0%" x2="100%" y2="100%">
      <stop offset="0%" stop-color="#ffffff" stop-opacity="0.98" />
      <stop offset="100%" stop-color="#ebf6ff" stop-opacity="0.94" />
    </linearGradient>
    <filter id="glow" x="-30%" y="-30%" width="160%" height="160%">
      <feGaussianBlur stdDeviation="18" result="blur" />
      <feColorMatrix
        in="blur"
        type="matrix"
        values="1 0 0 0 0
                0 1 0 0 0.55
                0 0 1 0 0.9
                0 0 0 0.5 0"
      />
    </filter>
    <filter id="shadow" x="-20%" y="-20%" width="160%" height="160%">
      <feDropShadow dx="0" dy="22" stdDeviation="20" flood-color="#173570" flood-opacity="0.18" />
    </filter>
  </defs>

  <rect width="860" height="760" rx="40" fill="url(#bg)" />
  <circle cx="650" cy="120" r="100" fill="#74dcef" opacity="0.18" />
  <circle cx="180" cy="620" r="124" fill="#2b82f0" opacity="0.08" />
  <circle cx="710" cy="560" r="74" fill="#113082" opacity="0.08" />

  <g filter="url(#glow)">
    <ellipse cx="420" cy="500" rx="170" ry="38" fill="#3bc4ff" opacity="0.3" />
  </g>

  <g filter="url(#shadow)">
    <path
      d="M244 445h354l75 48c8 5 10 16 3 24l-17 20c-6 7-15 11-25 11H224c-10 0-19-4-25-11l-17-20c-7-8-5-19 3-24l59-38z"
      fill="#0d2147"
    />
    <rect x="258" y="220" width="340" height="228" rx="24" fill="#09152d" />
    <rect x="279" y="241" width="298" height="186" rx="18" fill="url(#screen)" />
    <path d="M394 508h68c8 0 14 6 14 14s-6 14-14 14h-68c-8 0-14-6-14-14s6-14 14-14z" fill="#214b8f" opacity="0.8" />
  </g>

  <g opacity="0.95">
    <rect x="310" y="274" width="120" height="16" rx="8" fill="#d7edff" opacity="0.7" />
    <rect x="310" y="306" width="184" height="10" rx="5" fill="#95e9ff" opacity="0.85" />
    <rect x="310" y="330" width="142" height="10" rx="5" fill="#ffffff" opacity="0.65" />
    <rect x="310" y="364" width="92" height="56" rx="16" fill="#ffffff" opacity="0.14" />
    <rect x="418" y="364" width="142" height="56" rx="16" fill="#ffffff" opacity="0.14" />
    <path d="M336 402l18-16 20 12 21-20" fill="none" stroke="#95e9ff" stroke-linecap="round" stroke-linejoin="round" stroke-width="6" />
    <path d="M447 401h86" fill="none" stroke="#e8f9ff" stroke-linecap="round" stroke-width="6" />
    <path d="M447 384h54" fill="none" stroke="#95e9ff" stroke-linecap="round" stroke-width="6" />
  </g>

  <g filter="url(#shadow)">
    <rect x="84" y="126" width="182" height="118" rx="26" fill="url(#panel)" />
    <circle cx="126" cy="166" r="24" fill="#113082" opacity="0.12" />
    <circle cx="126" cy="166" r="12" fill="#0a67d8" />
    <rect x="160" y="150" width="78" height="12" rx="6" fill="#173570" opacity="0.86" />
    <rect x="160" y="174" width="58" height="10" rx="5" fill="#6f84a5" opacity="0.8" />
    <rect x="112" y="202" width="126" height="12" rx="6" fill="#dcebff" />
  </g>

  <g filter="url(#shadow)">
    <rect x="560" y="146" width="204" height="132" rx="28" fill="#16346d" />
    <rect x="586" y="176" width="66" height="66" rx="18" fill="#0a67d8" opacity="0.9" />
    <path d="M613 194l19 14-19 14" fill="none" stroke="#e7fbff" stroke-linecap="round" stroke-linejoin="round" stroke-width="6" />
    <rect x="670" y="184" width="62" height="12" rx="6" fill="#d3eeff" opacity="0.95" />
    <rect x="670" y="210" width="42" height="10" rx="5" fill="#9adfff" opacity="0.85" />
    <rect x="586" y="256" width="146" height="8" rx="4" fill="#7ecaf2" opacity="0.48" />
  </g>

  <g filter="url(#shadow)">
    <rect x="102" y="456" width="196" height="126" rx="26" fill="url(#panel)" />
    <rect x="128" y="486" width="62" height="62" rx="16" fill="#e9f5ff" />
    <path d="M145 528h27" fill="none" stroke="#0a67d8" stroke-linecap="round" stroke-width="6" />
    <path d="M145 512h27" fill="none" stroke="#39bcc6" stroke-linecap="round" stroke-width="6" />
    <rect x="208" y="492" width="62" height="11" rx="5.5" fill="#16346d" opacity="0.9" />
    <rect x="208" y="516" width="44" height="9" rx="4.5" fill="#6f84a5" opacity="0.82" />
  </g>

  <g filter="url(#shadow)">
    <rect x="602" y="470" width="150" height="104" rx="24" fill="url(#panel)" />
    <rect x="628" y="494" width="96" height="14" rx="7" fill="#173570" opacity="0.9" />
    <rect x="628" y="520" width="72" height="10" rx="5" fill="#8aa0c2" />
    <rect x="628" y="542" width="52" height="10" rx="5" fill="#0a67d8" opacity="0.5" />
  </g>

  <g opacity="0.95">
    <path d="M690 340l38 22-38 22-38-22z" fill="#39bcc6" opacity="0.7" />
    <path d="M690 384v44l-38-22v-44z" fill="#0a67d8" opacity="0.72" />
    <path d="M690 384l38-22v44l-38 22z" fill="#113082" opacity="0.78" />
  </g>

  <g opacity="0.62">
    <path d="M160 338l20 11-20 12-20-12z" fill="#0a67d8" />
    <path d="M160 361v22l-20-11v-23z" fill="#39bcc6" />
    <path d="M160 361l20-12v23l-20 11z" fill="#113082" />
  </g>

  <path
    d="M238 168c54-44 128-70 205-70 96 0 185 41 244 113"
    fill="none"
    stroke="#9fddff"
    stroke-dasharray="8 14"
    stroke-linecap="round"
    stroke-width="5"
    opacity="0.62"
  />
</svg>
