<svg width="960" height="720" viewBox="0 0 960 720" fill="none" xmlns="http://www.w3.org/2000/svg">
  <defs>
    <linearGradient id="bg2" x1="148" y1="58" x2="806" y2="654" gradientUnits="userSpaceOnUse">
      <stop stop-color="#F9FDFF"/>
      <stop offset="1" stop-color="#E7F2FF"/>
    </linearGradient>
    <linearGradient id="surface2" x1="224" y1="132" x2="730" y2="538" gradientUnits="userSpaceOnUse">
      <stop stop-color="#FFFFFF"/>
      <stop offset="1" stop-color="#EAF4FF"/>
    </linearGradient>
    <filter id="shadow2" x="162" y="94" width="636" height="484" filterUnits="userSpaceOnUse" color-interpolation-filters="sRGB">
      <feDropShadow dx="0" dy="24" stdDeviation="26" flood-color="#143A76" flood-opacity="0.12"/>
    </filter>
  </defs>

  <rect width="960" height="720" rx="42" fill="url(#bg2)"/>
  <circle cx="190" cy="124" r="112" fill="#E0FBFF"/>
  <circle cx="800" cy="140" r="120" fill="#E3EDFF"/>
  <ellipse cx="492" cy="610" rx="284" ry="44" fill="#D8E6F6"/>

  <g filter="url(#shadow2)">
    <rect x="188" y="130" width="584" height="396" rx="34" fill="url(#surface2)"/>
    <rect x="226" y="176" width="508" height="234" rx="28" fill="#F8FBFF" stroke="#DBE8F5"/>
    <rect x="254" y="204" width="200" height="178" rx="22" fill="#11285F"/>
    <rect x="280" y="232" width="82" height="18" rx="9" fill="#39BCC6"/>
    <rect x="280" y="268" width="148" height="14" rx="7" fill="#7CA4E6"/>
    <rect x="280" y="300" width="126" height="14" rx="7" fill="#6E95D8"/>
    <rect x="280" y="332" width="162" height="18" rx="9" fill="#1D458E"/>

    <rect x="482" y="204" width="220" height="82" rx="20" fill="#EAF4FF"/>
    <rect x="504" y="226" width="92" height="12" rx="6" fill="#8FC8F0"/>
    <rect x="504" y="252" width="168" height="10" rx="5" fill="#CADDF2"/>

    <rect x="482" y="304" width="220" height="78" rx="20" fill="#F7FBFF"/>
    <rect x="504" y="326" width="72" height="12" rx="6" fill="#39BCC6"/>
    <rect x="504" y="350" width="146" height="10" rx="5" fill="#D6E5F7"/>
  </g>

  <g>
    <rect x="324" y="468" width="320" height="18" rx="9" fill="#A7BED8"/>
    <rect x="362" y="486" width="22" height="68" rx="11" fill="#90A9C7"/>
    <rect x="584" y="486" width="22" height="68" rx="11" fill="#90A9C7"/>
  </g>

  <g>
    <ellipse cx="316" cy="554" rx="84" ry="18" fill="#D5E2F1"/>
    <circle cx="320" cy="336" r="42" fill="#F7C5A2"/>
    <path d="M282 326C286 288 316 276 350 286C362 302 366 323 360 350H296C286 345 281 336 282 326Z" fill="#18356D"/>
    <rect x="276" y="380" width="92" height="114" rx="34" fill="#0A67D8"/>
    <rect x="292" y="398" width="60" height="74" rx="22" fill="#FFFFFF" fill-opacity="0.16"/>
    <rect x="256" y="398" width="32" height="88" rx="16" fill="#0A67D8"/>
    <rect x="356" y="398" width="34" height="90" rx="17" fill="#0A67D8"/>
    <rect x="294" y="490" width="26" height="84" rx="13" fill="#203E7E"/>
    <rect x="334" y="490" width="26" height="84" rx="13" fill="#203E7E"/>
    <rect x="282" y="566" width="40" height="12" rx="6" fill="#101E39"/>
    <rect x="330" y="566" width="40" height="12" rx="6" fill="#101E39"/>
    <rect x="352" y="398" width="88" height="14" rx="7" transform="rotate(10 352 398)" fill="#F7C5A2"/>
  </g>

  <g>
    <ellipse cx="636" cy="560" rx="86" ry="18" fill="#D5E2F1"/>
    <circle cx="636" cy="328" r="40" fill="#F3BE98"/>
    <path d="M602 318C606 286 628 270 658 278C672 292 678 314 673 344H614C605 338 601 329 602 318Z" fill="#203E7E"/>
    <rect x="594" y="374" width="92" height="118" rx="34" fill="#39BCC6"/>
    <rect x="610" y="394" width="60" height="74" rx="22" fill="#FFFFFF" fill-opacity="0.18"/>
    <rect x="572" y="394" width="34" height="90" rx="17" fill="#39BCC6"/>
    <rect x="680" y="394" width="34" height="88" rx="17" fill="#39BCC6"/>
    <rect x="610" y="488" width="28" height="88" rx="14" fill="#17356F"/>
    <rect x="650" y="488" width="28" height="88" rx="14" fill="#17356F"/>
    <rect x="598" y="568" width="42" height="12" rx="6" fill="#101E39"/>
    <rect x="646" y="568" width="42" height="12" rx="6" fill="#101E39"/>
    <rect x="514" y="366" width="102" height="14" rx="7" transform="rotate(-18 514 366)" fill="#F3BE98"/>
  </g>

  <g>
    <rect x="692" y="170" width="128" height="92" rx="22" fill="#FFFFFF" opacity="0.96"/>
    <rect x="714" y="192" width="64" height="12" rx="6" fill="#39BCC6"/>
    <rect x="714" y="216" width="84" height="10" rx="5" fill="#C4D8F0"/>
    <rect x="714" y="236" width="68" height="10" rx="5" fill="#DAE7F8"/>
  </g>
</svg>
